{
    "asset" : {
        "generator" : "Khronos glTF Blender I/O v1.2.75",
        "version" : "2.0"
    },
    "scene" : 0,
    "scenes" : [
        {
            "name" : "Scene",
            "nodes" : [
                0,
                1,
                2,
                3,
                4
            ]
        }
    ],
    "nodes" : [
        {
            "mesh" : 0,
            "name" : "nav_mesh",
            "translation" : [
                -12.38318157196045,
                0.35959547758102417,
                -1.0301250219345093
            ]
        },
        {
            "mesh" : 1,
            "name" : "nav_mesh_door_1",
            "translation" : [
                0.25981903076171875,
                0,
                -0.008268356323242188
            ]
        },
        {
            "mesh" : 2,
            "name" : "nav_mesh_door_0",
            "translation" : [
                -102.01941680908203,
                0,
                0.03968667984008789
            ]
        },
        {
            "mesh" : 3,
            "name" : "nav_mesh_door_2",
            "translation" : [
                101.99854278564453,
                -0.0001783519983291626,
                0.039389610290527344
            ]
        },
        {
            "mesh" : 4,
            "name" : "nav_mesh_door_3",
            "translation" : [
                204.00086975097656,
                -0.0001783519983291626,
                0.039389610290527344
            ]
        }
    ],
    "materials" : [
        {
            "doubleSided" : true,
            "emissiveFactor" : [
                0,
                0,
                0
            ],
            "name" : "nav_mesh_walkable",
            "pbrMetallicRoughness" : {
                "baseColorFactor" : [
                    0.800000011920929,
                    0.800000011920929,
                    0.800000011920929,
                    1
                ],
                "metallicFactor" : 0,
                "roughnessFactor" : 0.5
            }
        },
        {
            "doubleSided" : true,
            "emissiveFactor" : [
                0,
                0,
                0
            ],
            "name" : "nav_mesh_non_walkable",
            "pbrMetallicRoughness" : {
                "baseColorFactor" : [
                    0.800000011920929,
                    0.800000011920929,
                    0.800000011920929,
                    1
                ],
                "metallicFactor" : 0,
                "roughnessFactor" : 0.5
            }
        }
    ],
    "meshes" : [
        {
            "name" : "nav_mesh",
            "primitives" : [
                {
                    "attributes" : {
                        "POSITION" : 0,
                        "NORMAL" : 1,
                        "TEXCOORD_0" : 2
                    },
                    "indices" : 3,
                    "material" : 0
                }
            ]
        },
        {
            "name" : "nav_mesh.001",
            "primitives" : [
                {
                    "attributes" : {
                        "POSITION" : 4,
                        "NORMAL" : 5,
                        "TEXCOORD_0" : 6
                    },
                    "indices" : 7,
                    "material" : 1
                }
            ]
        },
        {
            "name" : "nav_mesh.002",
            "primitives" : [
                {
                    "attributes" : {
                        "POSITION" : 8,
                        "NORMAL" : 9,
                        "TEXCOORD_0" : 10
                    },
                    "indices" : 11,
                    "material" : 1
                }
            ]
        },
        {
            "name" : "nav_mesh.003",
            "primitives" : [
                {
                    "attributes" : {
                        "POSITION" : 12,
                        "NORMAL" : 13,
                        "TEXCOORD_0" : 14
                    },
                    "indices" : 15,
                    "material" : 1
                }
            ]
        },
        {
            "name" : "nav_mesh.004",
            "primitives" : [
                {
                    "attributes" : {
                        "POSITION" : 16,
                        "NORMAL" : 17,
                        "TEXCOORD_0" : 18
                    },
                    "indices" : 15,
                    "material" : 1
                }
            ]
        }
    ],
    "accessors" : [
        {
            "bufferView" : 0,
            "componentType" : 5126,
            "count" : 528,
            "max" : [
                316.2187805175781,
                5.641297340393066,
                50.03012466430664
            ],
            "min" : [
                -189.28347778320312,
                -0.3597738444805145,
                -47.96987533569336
            ],
            "type" : "VEC3"
        },
        {
            "bufferView" : 1,
            "componentType" : 5126,
            "count" : 528,
            "type" : "VEC3"
        },
        {
            "bufferView" : 2,
            "componentType" : 5126,
            "count" : 528,
            "type" : "VEC2"
        },
        {
            "bufferView" : 3,
            "componentType" : 5123,
            "count" : 852,
            "type" : "SCALAR"
        },
        {
            "bufferView" : 4,
            "componentType" : 5126,
            "count" : 6,
            "max" : [
                0.9834823608398438,
                4.76837158203125e-07,
                4.750973224639893
            ],
            "min" : [
                -0.9834823608398438,
                -2.384185791015625e-07,
                -4.750973224639893
            ],
            "type" : "VEC3"
        },
        {
            "bufferView" : 5,
            "componentType" : 5126,
            "count" : 6,
            "type" : "VEC3"
        },
        {
            "bufferView" : 6,
            "componentType" : 5126,
            "count" : 6,
            "type" : "VEC2"
        },
        {
            "bufferView" : 7,
            "componentType" : 5123,
            "count" : 6,
            "type" : "SCALAR"
        },
        {
            "bufferView" : 8,
            "componentType" : 5126,
            "count" : 4,
            "max" : [
                1.004425048828125,
                0,
                4.693921089172363
            ],
            "min" : [
                -1.0044174194335938,
                0,
                -4.7610883712768555
            ],
            "type" : "VEC3"
        },
        {
            "bufferView" : 9,
            "componentType" : 5126,
            "count" : 4,
            "type" : "VEC3"
        },
        {
            "bufferView" : 10,
            "componentType" : 5126,
            "count" : 4,
            "type" : "VEC2"
        },
        {
            "bufferView" : 11,
            "componentType" : 5123,
            "count" : 6,
            "type" : "SCALAR"
        },
        {
            "bufferView" : 12,
            "componentType" : 5126,
            "count" : 4,
            "max" : [
                1.0430145263671875,
                1.4901161193847656e-08,
                4.689850330352783
            ],
            "min" : [
                -1.0430145263671875,
                -1.4901161193847656e-08,
                -4.542707443237305
            ],
            "type" : "VEC3"
        },
        {
            "bufferView" : 13,
            "componentType" : 5126,
            "count" : 4,
            "type" : "VEC3"
        },
        {
            "bufferView" : 14,
            "componentType" : 5126,
            "count" : 4,
            "type" : "VEC2"
        },
        {
            "bufferView" : 15,
            "componentType" : 5123,
            "count" : 6,
            "type" : "SCALAR"
        },
        {
            "bufferView" : 16,
            "componentType" : 5126,
            "count" : 4,
            "max" : [
                1.0430145263671875,
                1.4901161193847656e-08,
                4.685116767883301
            ],
            "min" : [
                -1.0430145263671875,
                -1.4901161193847656e-08,
                -4.542707443237305
            ],
            "type" : "VEC3"
        },
        {
            "bufferView" : 17,
            "componentType" : 5126,
            "count" : 4,
            "type" : "VEC3"
        },
        {
            "bufferView" : 18,
            "componentType" : 5126,
            "count" : 4,
            "type" : "VEC2"
        }
    ],
    "bufferViews" : [
        {
            "buffer" : 0,
            "byteLength" : 6336,
            "byteOffset" : 0
        },
        {
            "buffer" : 0,
            "byteLength" : 6336,
            "byteOffset" : 6336
        },
        {
            "buffer" : 0,
            "byteLength" : 4224,
            "byteOffset" : 12672
        },
        {
            "buffer" : 0,
            "byteLength" : 1704,
            "byteOffset" : 16896
        },
        {
            "buffer" : 0,
            "byteLength" : 72,
            "byteOffset" : 18600
        },
        {
            "buffer" : 0,
            "byteLength" : 72,
            "byteOffset" : 18672
        },
        {
            "buffer" : 0,
            "byteLength" : 48,
            "byteOffset" : 18744
        },
        {
            "buffer" : 0,
            "byteLength" : 12,
            "byteOffset" : 18792
        },
        {
            "buffer" : 0,
            "byteLength" : 48,
            "byteOffset" : 18804
        },
        {
            "buffer" : 0,
            "byteLength" : 48,
            "byteOffset" : 18852
        },
        {
            "buffer" : 0,
            "byteLength" : 32,
            "byteOffset" : 18900
        },
        {
            "buffer" : 0,
            "byteLength" : 12,
            "byteOffset" : 18932
        },
        {
            "buffer" : 0,
            "byteLength" : 48,
            "byteOffset" : 18944
        },
        {
            "buffer" : 0,
            "byteLength" : 48,
            "byteOffset" : 18992
        },
        {
            "buffer" : 0,
            "byteLength" : 32,
            "byteOffset" : 19040
        },
        {
            "buffer" : 0,
            "byteLength" : 12,
            "byteOffset" : 19072
        },
        {
            "buffer" : 0,
            "byteLength" : 48,
            "byteOffset" : 19084
        },
        {
            "buffer" : 0,
            "byteLength" : 48,
            "byteOffset" : 19132
        },
        {
            "buffer" : 0,
            "byteLength" : 32,
            "byteOffset" : 19180
        }
    ],
    "buffers" : [
        {
            "byteLength" : 19212,
            "uri" : "nav_mesh.bin"
        }
    ]
}
